<svg xmlns="http://www.w3.org/2000/svg" version="1.1" xmlns:xlink="http://www.w3.org/1999/xlink" xmlns:svgjs="http://svgjs.com/svgjs" width="42" height="42"><svg width="42" height="42" viewBox="0 0 42 42" fill="none" preserveAspectRatio="xMidYMid meet" xmlns="http://www.w3.org/2000/svg">
<g clip-path="url(#clip0_953_3495)">
<path d="M15.9506 24.6006C15.5129 24.5975 15.0942 24.4215 14.7857 24.1109C14.4773 23.8003 14.3043 23.3803 14.3043 22.9426C14.3027 22.7254 14.3441 22.51 14.4262 22.3089C14.5082 22.1078 14.6293 21.925 14.7823 21.7708C14.9353 21.6167 15.1173 21.4944 15.3178 21.4109C15.5184 21.3274 15.7334 21.2845 15.9506 21.2845H20.1464C20.5571 21.2845 20.9637 21.2034 21.3431 21.046C21.7224 20.8886 22.067 20.658 22.3571 20.3672L30.3536 12.3708C30.7763 11.9482 31.1117 11.4465 31.3405 10.8942C31.5693 10.342 31.6871 9.75005 31.6871 9.15228C31.6871 8.5545 31.5693 7.96259 31.3405 7.41034C31.1117 6.8581 30.7763 6.35633 30.3536 5.93372L25.5933 1.1735C24.8412 0.420954 23.8209 -0.00203704 22.7569 -0.00244141H11.7995C10.7355 -0.00203704 9.71527 0.420954 8.96313 1.1735L1.17839 8.95825C0.805137 9.33021 0.509093 9.77228 0.307282 10.2591C0.105471 10.7458 0.00187355 11.2677 0.00244375 11.7946V36.1037C0.00284359 36.4458 0.104591 36.7801 0.294822 37.0644C0.485053 37.3486 0.755224 37.5702 1.07127 37.701C1.38732 37.8319 1.73505 37.8662 2.07057 37.7995C2.40608 37.7329 2.71435 37.5684 2.95643 37.3267L7.97064 32.3007C9.17643 31.0932 9.85322 29.4563 9.85215 27.7498V15.6658C9.85198 14.908 9.55079 14.1813 9.01486 13.6456L4.69915 9.32984C4.5447 9.17543 4.42219 8.99211 4.33859 8.79034C4.255 8.58857 4.21195 8.3723 4.21195 8.1539C4.21195 7.9355 4.255 7.71924 4.33859 7.51747C4.42219 7.3157 4.5447 7.13237 4.69915 6.97796C4.85357 6.8235 5.03689 6.70097 5.23867 6.61738C5.44044 6.53379 5.6567 6.49076 5.8751 6.49076C6.0935 6.49076 6.30976 6.53379 6.51153 6.61738C6.7133 6.70097 6.89663 6.8235 7.05104 6.97796L10.9269 10.8539C11.0771 11.0048 11.2556 11.1245 11.4521 11.2062C11.6487 11.2879 11.8595 11.33 12.0723 11.33C12.2852 11.33 12.496 11.2879 12.6925 11.2062C12.8891 11.1245 13.0676 11.0048 13.2177 10.8539L22.0279 2.05546C22.1821 1.90072 22.3654 1.77795 22.5672 1.69418C22.769 1.61041 22.9853 1.56729 23.2038 1.56729C23.4223 1.56729 23.6386 1.61041 23.8404 1.69418C24.0422 1.77795 24.2255 1.90072 24.3798 2.05546C24.5345 2.20971 24.6573 2.39299 24.741 2.59478C24.8248 2.79658 24.8679 3.01291 24.8679 3.2314C24.8679 3.44989 24.8248 3.66623 24.741 3.86802C24.6573 4.06982 24.5345 4.25309 24.3798 4.40735L15.0663 13.7208C14.4703 14.3156 13.9974 15.022 13.6746 15.7997C13.3518 16.5773 13.1853 17.4109 13.1848 18.2529V27.7545C13.1837 29.461 13.8605 31.0979 15.0663 32.3054L24.0928 41.332C24.3062 41.5462 24.5599 41.7162 24.8392 41.832C25.1185 41.9479 25.4179 42.0073 25.7203 42.007H30.2924C30.4825 42.0073 30.6709 41.9701 30.8466 41.8975C31.0224 41.825 31.1821 41.7185 31.3167 41.5841C31.4512 41.4498 31.558 41.2903 31.6308 41.1146C31.7037 40.939 31.7411 40.7507 31.7411 40.5606V35.9791C31.7408 35.3685 31.498 34.7831 31.0662 34.3516L22.2325 25.5179C21.9424 25.2271 21.5978 24.9965 21.2184 24.8391C20.8391 24.6817 20.4324 24.6007 20.0217 24.6006H15.9506Z" fill="#050505"></path>
</g>
<defs>
<clipPath id="SvgjsClipPath1000">
<rect width="31.7411" height="42" fill="#050505"></rect>
</clipPath>
</defs>
</svg><style>@media (prefers-color-scheme: light) { :root { filter: none; } }
@media (prefers-color-scheme: dark) { :root { filter: contrast(0.7407407407407407) brightness(2); } }
</style></svg>