<svg width="114" height="43" viewBox="0 0 114 43" fill="none" xmlns="http://www.w3.org/2000/svg">
<path d="M6.9213 3.05658C6.9213 1.24054 5.95613 0.338864 4.08929 0.338864H1.18108V9H2.57803V5.82509H3.41621L5.32115 9H6.8832L4.96556 5.85049V5.7489C6.26092 5.4949 6.9213 4.61863 6.9213 3.10738V3.05658ZM5.53704 3.10738C5.53704 4.13605 5.23225 4.52973 4.08929 4.52973H2.57803V1.64692H4.08929C5.23225 1.64692 5.53704 2.01521 5.53704 3.05658V3.10738Z" fill="white"/>
<path d="M22.0035 9.12699C23.7306 9.12699 24.9498 8.07292 24.9498 5.95209V3.38677C24.9498 1.26594 23.7306 0.211868 22.0035 0.211868H21.9273C20.2001 0.211868 18.981 1.26594 18.981 3.38677V5.95209C18.981 8.07292 20.2001 9.12699 21.9273 9.12699H22.0035ZM21.9273 7.85703C20.8732 7.85703 20.3906 7.38715 20.3906 5.95209V3.38677C20.3906 1.95171 20.8732 1.48183 21.9273 1.48183H22.0035C23.0575 1.48183 23.5401 1.95171 23.5401 3.38677V5.95209C23.5401 7.38715 23.0575 7.85703 22.0035 7.85703H21.9273Z" fill="white"/>
<path d="M41.7591 4.45354C42.5338 4.18684 42.9656 3.61536 42.9656 2.70099V2.59939C42.9656 1.17704 42.0131 0.338864 40.324 0.338864H37.4666V9H40.6415C42.3052 9 43.283 8.16182 43.283 6.65057V6.56167C43.283 5.4695 42.7116 4.83452 41.7591 4.60593V4.45354ZM40.3494 1.64692C41.2638 1.64692 41.5686 1.95171 41.5686 2.73909V2.78989C41.5686 3.62806 41.2638 3.95825 40.3494 3.95825H38.8509V1.64692H40.3494ZM41.8861 6.49817C41.8861 7.36175 41.5686 7.69194 40.6669 7.69194H38.8509V5.25361H40.6669C41.5686 5.25361 41.8861 5.5838 41.8861 6.43468V6.49817Z" fill="white"/>
<path d="M61.1591 0.338864H55.711V9H61.1591V7.69194H57.1207V5.29171H60.2321V3.99635H57.1207V1.64692H61.1591V0.338864Z" fill="white"/>
<path d="M79.5432 3.05658C79.5432 1.24054 78.578 0.338864 76.7112 0.338864H73.803V9H75.1999V5.82509H76.0381L77.9431 9H79.5051L77.5875 5.85049V5.7489C78.8828 5.4949 79.5432 4.61863 79.5432 3.10738V3.05658ZM78.1589 3.10738C78.1589 4.13605 77.8542 4.52973 76.7112 4.52973H75.1999V1.64692H76.7112C77.8542 1.64692 78.1589 2.01521 78.1589 3.05658V3.10738Z" fill="white"/>
<path d="M91.387 0.338864V1.64692H93.8761V9H95.2858V1.64692H97.7749V0.338864H91.387Z" fill="white"/>
<path d="M113.708 9V7.10775H111.778V9H113.708Z" fill="white"/>
<path d="M2.81933 17.3389H1.40967V26H6.71811V24.6919H2.81933V17.3389Z" fill="white"/>
<path d="M24.8482 17.3389H19.4001V26H24.8482V24.6919H20.8097V22.2917H23.9211V20.9964H20.8097V18.6469H24.8482V17.3389Z" fill="white"/>
<path d="M42.8513 17.3389H37.3904V18.6469H39.4097V24.6919H37.3904V26H42.8513V24.6919H40.8193V18.6469H42.8513V17.3389Z" fill="white"/>
<path d="M55.076 17.3389V18.6469H57.5651V26H58.9748V18.6469H61.4639V17.3389H55.076Z" fill="white"/>
<path d="M75.4412 17.3389H74.0316V26H79.34V24.6919H75.4412V17.3389Z" fill="white"/>
<path d="M95.5524 26V24.1078H93.6221V26H95.5524Z" fill="white"/>
<path d="M0.952484 34.3389V43H3.84799C5.57514 43 6.7943 41.9459 6.7943 39.8251V37.5138C6.7943 35.3929 5.57514 34.3389 3.84799 34.3389H0.952484ZM5.38465 39.8251C5.38465 41.2601 4.90206 41.6919 3.84799 41.6919H2.36214V35.6469H3.84799C4.90206 35.6469 5.38465 36.066 5.38465 37.5138V39.8251Z" fill="white"/>
<path d="M24.8482 34.3389H19.4001V43H24.8482V41.6919H20.8097V39.2917H23.9211V37.9963H20.8097V35.6469H24.8482V34.3389Z" fill="white"/>
<path d="M41.2003 43L43.4735 34.3389H42.0131L40.2224 41.6919H40.0827L38.2667 34.3389H36.7682L39.0922 43H41.2003Z" fill="white"/>
</svg>
