<svg width="29" height="28" viewBox="0 0 29 28" xmlns="http://www.w3.org/2000/svg">
    <style>
        path {
            fill: #1E1E1E;
        }
        @media (prefers-color-scheme: dark) {
            path {
                fill: #f0f0f0;
            }
        }
    </style>
    <path d="M13.0029 19.0249C13.0029 18.0234 13.3225 17.3842 13.9191 16.7023L17.0726 13.5062C17.7544 12.9097 18.3937 12.59 19.3952 12.59H28.3496V15.1469H16.8808C16.0285 15.1469 15.3467 15.8714 15.3467 16.7237V27.9368H13.0029V19.0249V19.0249Z" fill="#1E1E1E"/>
    <path d="M15.3467 8.91185C15.3467 9.91333 15.0271 10.5526 14.4305 11.2344L11.277 14.4305C10.5952 15.0271 9.95591 15.3467 8.95443 15.3467L0 15.3467L4.82973e-07 12.7899L11.4688 12.7899C12.3211 12.7899 13.0029 12.0654 13.0029 11.2131L13.0029 0L15.3467 1.44892e-06L15.3467 8.91185Z" fill="#1E1E1E"/>
</svg>
